/* XPM */
static char * World_xpm[] = {
"180 86 2 1",
" 	c #FFFFFF",
".	c #000000",
"                     ..............................                                                                                                                                 ",
"                    ................................                                                                                                                                ",
"                   ..................................                                                                                                                               ",
"                  ...................................                                                                                                                               ",
"                  ....................................                                                                                                                              ",
"                 .....................................                                                                                                                              ",
"   ...................................................                                                                                                                              ",
"   ...................................................                                                                                                                              ",
"   ...................................................                                             ......................                                                           ",
"   ...................................................                                        .................................                                                     ",
"   ...................................................                                ...................................................                                           ",
"   ...................................................                              .................................................................................               ",
"   ..................................................                               .................................................................................               ",
"   ..................................................                               ...................................................................................             ",
"   .................................................                               ....................................................................................             ",
"   .................................................                               .....................................................................................            ",
"   ................................................                               ......................................................................................            ",
"   ................................................                               ......................................................................................            ",
"   ................................................                             .........................................................................................           ",
"   ................................................                           ...........................................................................................           ",
"   ................................................                           ...........................................................................................           ",
"    ...............................................                           ...........................................................................................           ",
"    ...............................................                           ...........................................................................................           ",
"    ...............................................                           ...........................................................................................           ",
"     ..............................................                           ...........................................................................................           ",
"     ..............................................                           .....................     .................................................................           ",
"       ............................................                           ....................      .................................................................           ",
"       ............................................                           ....................      .................................................................           ",
"          ...................................                                 ....................      .................................................................           ",
"                ...........................                                   ...................       .................................................................           ",
"                ...........................                                   ...................       .................................................................           ",
"                ...........................                                   .................         .................................................................           ",
"                ...........................                                   .................         .................................................................           ",
"                ...........................                                   ...............           .................................................................           ",
"                ...........................                                                             .................................................................           ",
"                ...........................                                                              ..............................................................             ",
"                ...........................                                                             ..............................................................              ",
"                ...........................                                                             ..............................................................              ",
"                ...........................                                                             ............................................................                ",
"                ...........................                               ..........................................................................................                ",
"                ........................                                .......................................................................................                     ",
"                 .......................                              .......................................................................................                       ",
"                 .............................                        .......................................................................................                       ",
"                 ...............................                      .......................................................................................                       ",
"                 ...............................                     ........................................................................................                       ",
"                 ...............................                     .......................................................................................                        ",
"                  ..............................                     .......................................................................................                        ",
"                  ..............................                     .......................................................................................                        ",
"                  ..............................                     ......................................................................................                         ",
"                    ............................                     ......................................................................................                         ",
"                    ............................                     ....................................................................................                           ",
"                     ...........................                     ...................................     ............................................                           ",
"                     ...........................                     ...................................      ...........................................                           ",
"                       .........................                     ...................................      ...........................................                           ",
"                       .........................                     ..................................       ...........................................                           ",
"                         .......................                     ..................................         .........................................                           ",
"                         ........................                    ..................................         .........................................                           ",
"                                 ................                    .................................           .....................................                              ",
"                                 ................                    .................................           .........................                                          ",
"                                 ................                              ......................            .........................                                          ",
"                                 ................                              ......................            ......................                                             ",
"                                 ................                              ......................            .................                                                  ",
"                                 ................                              ......................            ...............              ...............                       ",
"                                 ................                              ......................            ...............              ...............                       ",
"                                 ................                              ......................            ...............              ...............                       ",
"                                 ................                              ......................            ...............              ...............                       ",
"                                 ................                              ......................                                         ...............                       ",
"                                 ...................                           ......................                                         ...............                       ",
"                                  ....................                         ......................                                         ...............                       ",
"                                  ....................                         .....................                                          ...............                       ",
"                                  ....................                         .....................                                          ...............                       ",
"                                  ....................                         ...................                                            ...............                       ",
"                                  ....................                         ...................                                            ...............                       ",
"                                  ....................                         .................                                              ...............                       ",
"                                  ....................                         ...............                                                ...............                       ",
"                                  ....................                         ...............                                                ...............                       ",
"                                  ....................                         ...............                                                ...............                       ",
"                                  ....................                                                                                                                              ",
"                                  ....................                                                                                                                              ",
"                                  ....................                                                                                                                              ",
"                                  ....................                                                                                                                              ",
"                                     .................                                                                                                                              ",
"                                       ...............                                                                                                                              ",
"                                                                                                                                                                                    ",
"                                                                                                                                                                                    ",
"                                                                                                                                                                                    "};
