/* XPM */
static char * world_xpm[] = {
"180 86 5 1",
" 	c None",
".	c #0000FF",
"+	c #FF0000",
"@	c #00FF00",
"#	c #79008F",
".....................++++++++++++++++++++++++++++++.................................................................................................................................",
"....................++++++++++++++++++++++++++++++++................................................................................................................................",
"...................++++++++++++++++++++++++++++++++++...............................................................................................................................",
"..................+++++++++++++++++++++++++++++++++++...............................................................................................................................",
"..................++++++++++++++++++++++++++++++++++++..............................................................................................................................",
".................+++++++++++++++++++++++++++++++++++++..............................................................................................................................",
"...+++++++++++++++++++++++++++++++++++++++++++++++++++..............................................................................................................................",
"...+++++++++++++++++++++++++++++++++++++++++++++++++++..............................................................................................................................",
"...+++++++++++++++++++++++++++++++++++++++++++++++++++.............................................@@@@@@@@@@@@@@@@@@@@@@...........................................................",
"...+++++++++++++++++++++++++++++++++++++++++++++++++++........................................@@@@@@@@@@@@@@@@@@@@@@@@@@@@@@@@@.....................................................",
"...+++++++++++++++++++++++++++++++++++++++++++++++++++................................@@@@@@@@@@@@@@@@@@@@@@@@@@@@@@@@@@@@@@@@@@@@@@@@@@@...........................................",
"...+++++++++++++++++++++++++++++++++++++++++++++++++++..............................@@@@@@@@@@@@@@@@@@@@@@@@@@@@@@@@@@@@@@@@@@@@@@@@@@@@@@@@@@@@@@@@@@@@@@@@@@@@@@@@@...............",
"...++++++++++++++++++++++++++++++++++++++++++++++++++...............................@@@@@@@@@@@@@@@@@@@@@@@@@@@@@@@@@@@@@@@@@@@@@@@@@@@@@@@@@@@@@@@@@@@@@@@@@@@@@@@@@...............",
"...++++++++++++++++++++++++++++++++++++++++++++++++++...............................@@@@@@@@@@@@@@@@@@@@@@@@@@@@@@@@@@@@@@@@@@@@@@@@@@@@@@@@@@@@@@@@@@@@@@@@@@@@@@@@@@@.............",
"...+++++++++++++++++++++++++++++++++++++++++++++++++...............................@@@@@@@@@@@@@@@@@@@@@@@@@@@@@@@@@@@@@@@@@@@@@@@@@@@@@@@@@@@@@@@@@@@@@@@@@@@@@@@@@@@@.............",
"...+++++++++++++++++++++++++++++++++++++++++++++++++...............................@@@@@@@@@@@@@@@@@@@@@@@@@@@@@@@@@@@@@@@@@@@@@@@@@@@@@@@@@@@@@@@@@@@@@@@@@@@@@@@@@@@@@............",
"...++++++++++++++++++++++++++++++++++++++++++++++++...............................@@@@@@@@@@@@@@@@@@@@@@@@@@@@@@@@@@@@@@@@@@@@@@@@@@@@@@@@@@@@@@@@@@@@@@@@@@@@@@@@@@@@@@............",
"...++++++++++++++++++++++++++++++++++++++++++++++++...............................@@@@@@@@@@@@@@@@@@@@@@@@@@@@@@@@@@@@@@@@@@@@@@@@@@@@@@@@@@@@@@@@@@@@@@@@@@@@@@@@@@@@@@............",
"...++++++++++++++++++++++++++++++++++++++++++++++++.............................@@@@@@@@@@@@@@@@@@@@@@@@@@@@@@@@@@@@@@@@@@@@@@@@@@@@@@@@@@@@@@@@@@@@@@@@@@@@@@@@@@@@@@@@@...........",
"...++++++++++++++++++++++++++++++++++++++++++++++++...........................@@@@@@@@@@@@@@@@@@@@@@@@@@@@@@@@@@@@@@@@@@@@@@@@@@@@@@@@@@@@@@@@@@@@@@@@@@@@@@@@@@@@@@@@@@@...........",
"...++++++++++++++++++++++++++++++++++++++++++++++++...........................@@@@@@@@@@@@@@@@@@@@@@@@@@@@@@@@@@@@@@@@@@@@@@@@@@@@@@@@@@@@@@@@@@@@@@@@@@@@@@@@@@@@@@@@@@@...........",
"....+++++++++++++++++++++++++++++++++++++++++++++++...........................@@@@@@@@@@@@@@@@@@@@@@@@@@@@@@@@@@@@@@@@@@@@@@@@@@@@@@@@@@@@@@@@@@@@@@@@@@@@@@@@@@@@@@@@@@@...........",
"....+++++++++++++++++++++++++++++++++++++++++++++++...........................@@@@@@@@@@@@@@@@@@@@@@@@@@@@@@@@@@@@@@@@@@@@@@@@@@@@@@@@@@@@@@@@@@@@@@@@@@@@@@@@@@@@@@@@@@@...........",
"....+++++++++++++++++++++++++++++++++++++++++++++++...........................@@@@@@@@@@@@@@@@@@@@@@@@@@@@@@@@@@@@@@@@@@@@@@@@@@@@@@@@@@@@@@@@@@@@@@@@@@@@@@@@@@@@@@@@@@@...........",
".....++++++++++++++++++++++++++++++++++++++++++++++...........................@@@@@@@@@@@@@@@@@@@@@@@@@@@@@@@@@@@@@@@@@@@@@@@@@@@@@@@@@@@@@@@@@@@@@@@@@@@@@@@@@@@@@@@@@@@...........",
".....++++++++++++++++++++++++++++++++++++++++++++++...........................@@@@@@@@@@@@@@@@@@@@@.....@@@@@@@@@@@@@@@@@@@@@@@@@@@@@@@@@@@@@@@@@@@@@@@@@@@@@@@@@@@@@@@@@...........",
".......++++++++++++++++++++++++++++++++++++++++++++...........................@@@@@@@@@@@@@@@@@@@@......@@@@@@@@@@@@@@@@@@@@@@@@@@@@@@@@@@@@@@@@@@@@@@@@@@@@@@@@@@@@@@@@@...........",
".......++++++++++++++++++++++++++++++++++++++++++++...........................@@@@@@@@@@@@@@@@@@@@......@@@@@@@@@@@@@@@@@@@@@@@@@@@@@@@@@@@@@@@@@@@@@@@@@@@@@@@@@@@@@@@@@...........",
"..........+++++++++++++++++++++++++++++++++++.................................@@@@@@@@@@@@@@@@@@@@......@@@@@@@@@@@@@@@@@@@@@@@@@@@@@@@@@@@@@@@@@@@@@@@@@@@@@@@@@@@@@@@@@...........",
"................+++++++++++++++++++++++++++...................................@@@@@@@@@@@@@@@@@@@.......@@@@@@@@@@@@@@@@@@@@@@@@@@@@@@@@@@@@@@@@@@@@@@@@@@@@@@@@@@@@@@@@@...........",
"................+++++++++++++++++++++++++++...................................@@@@@@@@@@@@@@@@@@@.......@@@@@@@@@@@@@@@@@@@@@@@@@@@@@@@@@@@@@@@@@@@@@@@@@@@@@@@@@@@@@@@@@...........",
"................+++++++++++++++++++++++++++...................................@@@@@@@@@@@@@@@@@.........@@@@@@@@@@@@@@@@@@@@@@@@@@@@@@@@@@@@@@@@@@@@@@@@@@@@@@@@@@@@@@@@@...........",
"................+++++++++++++++++++++++++++...................................@@@@@@@@@@@@@@@@@.........@@@@@@@@@@@@@@@@@@@@@@@@@@@@@@@@@@@@@@@@@@@@@@@@@@@@@@@@@@@@@@@@@...........",
"................+++++++++++++++++++++++++++...................................@@@@@@@@@@@@@@@...........@@@@@@@@@@@@@@@@@@@@@@@@@@@@@@@@@@@@@@@@@@@@@@@@@@@@@@@@@@@@@@@@@...........",
"................+++++++++++++++++++++++++++.............................................................@@@@@@@@@@@@@@@@@@@@@@@@@@@@@@@@@@@@@@@@@@@@@@@@@@@@@@@@@@@@@@@@@...........",
"................+++++++++++++++++++++++++++..............................................................@@@@@@@@@@@@@@@@@@@@@@@@@@@@@@@@@@@@@@@@@@@@@@@@@@@@@@@@@@@@@@.............",
"................+++++++++++++++++++++++++++.............................................................@@@@@@@@@@@@@@@@@@@@@@@@@@@@@@@@@@@@@@@@@@@@@@@@@@@@@@@@@@@@@@..............",
"................+++++++++++++++++++++++++++.............................................................@@@@@@@@@@@@@@@@@@@@@@@@@@@@@@@@@@@@@@@@@@@@@@@@@@@@@@@@@@@@@@..............",
"................+++++++++++++++++++++++++++.............................................................@@@@@@@@@@@@@@@@@@@@@@@@@@@@@@@@@@@@@@@@@@@@@@@@@@@@@@@@@@@@................",
"................+++++++++++++++++++++++++++...............................@@@@@@@@@@@@@@@@@@@@@@@@@@@@@@@@@@@@@@@@@@@@@@@@@@@@@@@@@@@@@@@@@@@@@@@@@@@@@@@@@@@@@@@@@@................",
"................++++++++++++++++++++++++................................@@@@@@@@@@@@@@@@@@@@@@@@@@@@@@@@@@@@@@@@@@@@@@@@@@@@@@@@@@@@@@@@@@@@@@@@@@@@@@@@@@@@@@@.....................",
".................+++++++++++++++++++++++..............................@@@@@@@@@@@@@@@@@@@@@@@@@@@@@@@@@@@@@@@@@@@@@@@@@@@@@@@@@@@@@@@@@@@@@@@@@@@@@@@@@@@@@@@.......................",
".................+++++++++++++++++++++++++++++........................@@@@@@@@@@@@@@@@@@@@@@@@@@@@@@@@@@@@@@@@@@@@@@@@@@@@@@@@@@@@@@@@@@@@@@@@@@@@@@@@@@@@@@@.......................",
".................+++++++++++++++++++++++++++++++......................@@@@@@@@@@@@@@@@@@@@@@@@@@@@@@@@@@@@@@@@@@@@@@@@@@@@@@@@@@@@@@@@@@@@@@@@@@@@@@@@@@@@@@@.......................",
".................+++++++++++++++++++++++++++++++.....................@@@@@@@@@@@@@@@@@@@@@@@@@@@@@@@@@@@@@@@@@@@@@@@@@@@@@@@@@@@@@@@@@@@@@@@@@@@@@@@@@@@@@@@@.......................",
".................+++++++++++++++++++++++++++++++.....................@@@@@@@@@@@@@@@@@@@@@@@@@@@@@@@@@@@@@@@@@@@@@@@@@@@@@@@@@@@@@@@@@@@@@@@@@@@@@@@@@@@@@@@........................",
"..................++++++++++++++++++++++++++++++.....................@@@@@@@@@@@@@@@@@@@@@@@@@@@@@@@@@@@@@@@@@@@@@@@@@@@@@@@@@@@@@@@@@@@@@@@@@@@@@@@@@@@@@@@........................",
"..................++++++++++++++++++++++++++++++.....................@@@@@@@@@@@@@@@@@@@@@@@@@@@@@@@@@@@@@@@@@@@@@@@@@@@@@@@@@@@@@@@@@@@@@@@@@@@@@@@@@@@@@@@........................",
"..................++++++++++++++++++++++++++++++.....................@@@@@@@@@@@@@@@@@@@@@@@@@@@@@@@@@@@@@@@@@@@@@@@@@@@@@@@@@@@@@@@@@@@@@@@@@@@@@@@@@@@@@@.........................",
"....................++++++++++++++++++++++++++++.....................@@@@@@@@@@@@@@@@@@@@@@@@@@@@@@@@@@@@@@@@@@@@@@@@@@@@@@@@@@@@@@@@@@@@@@@@@@@@@@@@@@@@@@.........................",
"....................++++++++++++++++++++++++++++.....................@@@@@@@@@@@@@@@@@@@@@@@@@@@@@@@@@@@@@@@@@@@@@@@@@@@@@@@@@@@@@@@@@@@@@@@@@@@@@@@@@@@@...........................",
".....................+++++++++++++++++++++++++++.....................@@@@@@@@@@@@@@@@@@@@@@@@@@@@@@@@@@@.....@@@@@@@@@@@@@@@@@@@@@@@@@@@@@@@@@@@@@@@@@@@@...........................",
".....................+++++++++++++++++++++++++++.....................@@@@@@@@@@@@@@@@@@@@@@@@@@@@@@@@@@@......@@@@@@@@@@@@@@@@@@@@@@@@@@@@@@@@@@@@@@@@@@@...........................",
".......................+++++++++++++++++++++++++.....................@@@@@@@@@@@@@@@@@@@@@@@@@@@@@@@@@@@......@@@@@@@@@@@@@@@@@@@@@@@@@@@@@@@@@@@@@@@@@@@...........................",
".......................+++++++++++++++++++++++++.....................@@@@@@@@@@@@@@@@@@@@@@@@@@@@@@@@@@.......@@@@@@@@@@@@@@@@@@@@@@@@@@@@@@@@@@@@@@@@@@@...........................",
".........................+++++++++++++++++++++++.....................@@@@@@@@@@@@@@@@@@@@@@@@@@@@@@@@@@.........@@@@@@@@@@@@@@@@@@@@@@@@@@@@@@@@@@@@@@@@@...........................",
".........................++++++++++++++++++++++++....................@@@@@@@@@@@@@@@@@@@@@@@@@@@@@@@@@@.........@@@@@@@@@@@@@@@@@@@@@@@@@@@@@@@@@@@@@@@@@...........................",
".................................++++++++++++++++....................@@@@@@@@@@@@@@@@@@@@@@@@@@@@@@@@@...........@@@@@@@@@@@@@@@@@@@@@@@@@@@@@@@@@@@@@..............................",
".................................++++++++++++++++....................@@@@@@@@@@@@@@@@@@@@@@@@@@@@@@@@@...........@@@@@@@@@@@@@@@@@@@@@@@@@..........................................",
".................................++++++++++++++++..............................@@@@@@@@@@@@@@@@@@@@@@............@@@@@@@@@@@@@@@@@@@@@@@@@..........................................",
".................................++++++++++++++++..............................@@@@@@@@@@@@@@@@@@@@@@............@@@@@@@@@@@@@@@@@@@@@@.............................................",
".................................++++++++++++++++..............................@@@@@@@@@@@@@@@@@@@@@@............@@@@@@@@@@@@@@@@@..................................................",
".................................++++++++++++++++..............................@@@@@@@@@@@@@@@@@@@@@@............@@@@@@@@@@@@@@@..............###############.......................",
".................................++++++++++++++++..............................@@@@@@@@@@@@@@@@@@@@@@............@@@@@@@@@@@@@@@..............###############.......................",
".................................++++++++++++++++..............................@@@@@@@@@@@@@@@@@@@@@@............@@@@@@@@@@@@@@@..............###############.......................",
".................................++++++++++++++++..............................@@@@@@@@@@@@@@@@@@@@@@............@@@@@@@@@@@@@@@..............###############.......................",
".................................++++++++++++++++..............................@@@@@@@@@@@@@@@@@@@@@@.........................................###############.......................",
".................................+++++++++++++++++++...........................@@@@@@@@@@@@@@@@@@@@@@.........................................###############.......................",
"..................................++++++++++++++++++++.........................@@@@@@@@@@@@@@@@@@@@@@.........................................###############.......................",
"..................................++++++++++++++++++++.........................@@@@@@@@@@@@@@@@@@@@@..........................................###############.......................",
"..................................++++++++++++++++++++.........................@@@@@@@@@@@@@@@@@@@@@..........................................###############.......................",
"..................................++++++++++++++++++++.........................@@@@@@@@@@@@@@@@@@@............................................###############.......................",
"..................................++++++++++++++++++++.........................@@@@@@@@@@@@@@@@@@@............................................###############.......................",
"..................................++++++++++++++++++++.........................@@@@@@@@@@@@@@@@@..............................................###############.......................",
"..................................++++++++++++++++++++.........................@@@@@@@@@@@@@@@................................................###############.......................",
"..................................++++++++++++++++++++.........................@@@@@@@@@@@@@@@................................................###############.......................",
"..................................++++++++++++++++++++.........................@@@@@@@@@@@@@@@................................................###############.......................",
"..................................++++++++++++++++++++..............................................................................................................................",
"..................................++++++++++++++++++++..............................................................................................................................",
"..................................++++++++++++++++++++..............................................................................................................................",
"..................................++++++++++++++++++++..............................................................................................................................",
".....................................+++++++++++++++++..............................................................................................................................",
".......................................+++++++++++++++..............................................................................................................................",
"....................................................................................................................................................................................",
"....................................................................................................................................................................................",
"...................................................................................................................................................................................."};
